<svg width="20px" height="27px" viewBox="0 0 20 27" version="1.1" xmlns="http://www.w3.org/2000/svg">
  <g stroke="none" stroke-width="1" fill="none" fill-rule="evenodd">
    <g transform="translate(0.970000, 0.147000)" fill="#B8860B" fill-rule="nonzero">
      <path d="M19.022,18.447 C18.9796943,15.5161453 18.2337555,12.6383648 16.847,10.056 C14.9251978,6.49790154 12.5459943,3.20661963 9.77,0.266 L9.518,0 L9.252,0.294 C6.47632309,3.23650052 4.09502791,6.52742088 2.168,10.084 C0.78645265,12.668061 0.0431005155,15.5451218 0,18.475 C0,20.335 0.965,23.37 1.8,23.875 C2.282,24.148 3.667,23.812 4.6,23.375 C5.42406314,22.9397043 6.37797172,22.8178456 7.285,23.032 C8.18172391,23.2277505 8.97694461,23.7422632 9.523,24.48 C10.1585507,25.383896 11.1129225,26.0134741 12.194,26.242 C16.959,27.223 19.05,21.391 19.022,18.447 Z M16.222,10.398 C16.9974274,11.8954004 17.5787811,13.4855538 17.952,15.13 L17.833,15.186 C17.0165354,15.6370427 16.0587843,15.7597121 15.155,15.529 C14.2470454,15.3344479 13.4441542,14.8085755 12.903,14.054 C12.5886728,13.6112479 12.1954384,13.2302174 11.743,12.93 L15.543,9.13 C15.790414,9.54017745 16.016709,9.96272827 16.221,10.396 L16.222,10.398 Z M9.845,1.454 C11.034,2.797 12.076,4.076 12.992,5.307 L9.845,8.454 L9.845,1.454 Z M9.845,9.461 L13.418,5.888 C14.0706667,6.78333333 14.651,7.655 15.159,8.503 L11.082,12.58 C10.8037026,12.4528905 10.513211,12.3543847 10.215,12.286 L9.844,12.216 L9.845,9.461 Z M9.145,1.475 L9.145,8.468 L6.019,5.321 C6.91433333,4.09033333 7.954,2.80833333 9.138,1.475 L9.145,1.475 Z M5.582,5.902 L9.148,9.461 L9.148,12.161 C8.67089281,12.1635418 8.19761591,12.2463652 7.748,12.406 L3.853,8.511 C4.36566667,7.667 4.939,6.79766667 5.573,5.903 L5.582,5.902 Z M2.782,10.402 C2.992,9.989 3.216,9.57 3.482,9.15 L7.041,12.709 C6.23093219,13.1494531 5.28418021,13.2669933 4.391,13.038 C3.5230762,12.8436483 2.75231658,12.3475272 2.216,11.638 C2.377,11.246 2.58,10.827 2.789,10.4 L2.782,10.402 Z M12.355,25.52 C11.441124,25.3533909 10.6309681,24.8303151 10.103,24.066 C9.44613959,23.1833919 8.49268008,22.5676382 7.418,22.332 C6.3513356,22.0317425 5.20855524,22.1760329 4.25,22.732 C3.69210257,23.0411071 3.06271091,23.1980239 2.425,23.187 C2.19215873,23.1762207 1.97995776,23.0502498 1.859,22.851 C1.3026045,21.8959401 0.932395935,20.8440184 0.768,19.751 C1.24369853,20.0810864 1.77734506,20.3185642 2.341,20.451 C3.40824858,20.7177009 4.53679105,20.5727505 5.502,20.045 C7.19261039,19.1744884 9.26495324,19.6571178 10.397,21.185 C11.0467854,22.0753917 12.0007754,22.6963215 13.078,22.93 C14.1447476,23.1943818 15.2717339,23.0517705 16.239,22.53 C16.6187377,22.3252937 17.0301048,22.1856926 17.456,22.117 C15.656,26.117 13.33,25.697 12.365,25.517 L12.355,25.52 Z M17.802,21.32 C17.1587769,21.3622789 16.5319049,21.5408983 15.963,21.844 C15.1441414,22.2954875 14.1840614,22.4181345 13.278,22.187 C12.3739103,21.9877417 11.5747824,21.4627022 11.033,20.712 C10.3862344,19.8165301 9.4333243,19.1895594 8.355,18.95 C7.28751212,18.6874458 6.16048841,18.8322012 5.194,19.356 C4.37753535,19.8070427 3.41978425,19.9297121 2.516,19.699 C1.8330864,19.545809 1.20467323,19.2098257 0.698,18.727 L0.698,18.43 C0.700051563,17.5132781 0.782028655,16.5984807 0.943,15.696 C1.56939119,16.3741273 2.38608768,16.847135 3.286,17.053 C4.35576429,17.3159982 5.48512838,17.1712628 6.454,16.647 C7.27046465,16.1959573 8.22821575,16.0732879 9.132,16.304 C10.0378735,16.5035172 10.8391259,17.0283162 11.384,17.779 C12.0308144,18.668485 12.9809758,19.2903053 14.055,19.527 C15.1247698,19.7899008 16.2540984,19.6451699 17.223,19.121 C17.5616594,18.9416369 17.9243813,18.811973 18.3,18.736 C18.2695658,19.6205575 18.1043307,20.4952919 17.81,21.33 L17.802,21.32 Z M16.886,18.52 C15.186786,19.4107961 13.0916607,18.9263249 11.956,17.38 C11.3115751,16.4866559 10.3607431,15.8619048 9.285,15.625 C8.21597522,15.3601737 7.0866484,15.5027654 6.117,16.025 C5.30032231,16.4749334 4.34387935,16.5999353 3.439,16.375 C2.53207031,16.1736997 1.73066325,15.6463084 1.187,14.893 L1.124,14.809 C1.32347533,13.9884538 1.57805277,13.1822919 1.886,12.396 C2.50703845,13.0676063 3.31870382,13.53311 4.212,13.73 C5.27870738,13.9950663 6.40594333,13.8524234 7.373,13.33 C8.19225454,12.8801838 9.15081088,12.7552323 10.058,12.98 C10.9674876,13.1797217 11.7716224,13.7072683 12.317,14.462 C12.9582172,15.3586878 13.9104611,15.9843665 14.988,16.217 C16.0316409,16.4811966 17.1361763,16.3490086 18.088,15.846 C18.2120722,16.5733053 18.2845862,17.3084702 18.305,18.046 C17.8141032,18.1292876 17.3395343,18.2899524 16.899,18.522 L16.886,18.52 Z"></path>
    </g>
  </g>
</svg>
